<?xml version="1.0" encoding="UTF-8" standalone="no"?><!DOCTYPE svg PUBLIC "-//W3C//DTD SVG 1.1//EN" "http://www.w3.org/Graphics/SVG/1.1/DTD/svg11.dtd"><svg width="100%" height="100%" viewBox="0 0 527 527" version="1.1" xmlns="http://www.w3.org/2000/svg" xmlns:xlink="http://www.w3.org/1999/xlink" xml:space="preserve" xmlns:serif="http://www.serif.com/" style="fill-rule:evenodd;clip-rule:evenodd;stroke-linejoin:round;stroke-miterlimit:1.41421;"><path d="M0,203.62l69.81,0l0,13.461l-54.487,0l0,39.646l36.761,0l0,12.335l-36.761,0l0,54.482l-15.323,0l0,-119.924Z" style="fill:#20c85f;fill-rule:nonzero;"/><path d="M89.191,203.62l73.621,0l0,13.461l-58.637,0l0,39.646l39.352,0l0,12.335l-39.352,0l0,41.289l59.962,0l0,13.193l-74.946,0l0,-119.924Z" style="fill:#20c85f;fill-rule:nonzero;"/><path d="M182.3,203.62l15.206,0l0,106.662l57.052,0l0,13.262l-72.258,0l0,-119.924Z" style="fill:#20c85f;fill-rule:nonzero;"/><path d="M288.803,310.83l19.628,0c15.51,0 23.49,-1.529 31.456,-7.508c15.284,-11.468 14.707,-31.097 14.707,-38.076c0,-4.488 0.498,-24.7 -10.796,-37.16c-7.643,-8.464 -18.828,-11.498 -33.449,-11.498l-21.546,0l0,94.242Zm-14.985,-107.21l34.708,0c16.121,0 33.752,0.698 47.034,16.306c10.631,12.46 13.325,28.213 13.325,44.657c0,25.906 -9.878,41.056 -19.009,48.359c-11.792,9.794 -26.355,10.602 -43.965,10.602l-32.093,0l0,-119.924Z" style="fill:#20c85f;fill-rule:nonzero;"/><path d="M390.552,203.456l42.027,0l25.404,87.367l27.414,-87.367l40.851,0l0,120.088l-25.577,0l0,-102.981l-32.721,102.981l-21.262,0l-32.059,-102.981l0,102.981l-24.077,0l0,-120.088Z" style="fill:#20c85f;fill-rule:nonzero;"/></svg>